<?xml version="1.0" standalone="no"?>
<!DOCTYPE svg PUBLIC "-//W3C//DTD SVG 20010904//EN"
 "http://www.w3.org/TR/2001/REC-SVG-20010904/DTD/svg10.dtd">
<svg version="1.0" xmlns="http://www.w3.org/2000/svg"
 width="180.000000pt" height="180.000000pt" viewBox="0 0 180.000000 180.000000"
 preserveAspectRatio="xMidYMid meet">
<metadata>
Created by potrace 1.14, written by Peter Selinger 2001-2017
</metadata>
<g transform="translate(0.000000,180.000000) scale(0.100000,-0.100000)"
fill="#000000" stroke="none">
<path d="M1203 1785 c-39 -42 -78 -146 -88 -235 -9 -76 -15 -84 -71 -86 -129
-6 -336 -49 -368 -76 -26 -22 -46 -7 -60 45 -33 115 -43 165 -45 223 -1 33 -4
69 -6 80 -2 10 -4 21 -4 24 -1 8 -290 5 -297 -3 -4 -4 -20 -7 -34 -7 -45 0
-47 -6 -53 -160 -1 -36 14 -163 21 -175 4 -5 7 -14 8 -20 1 -5 13 -32 25 -60
13 -27 24 -52 24 -55 3 -11 26 -62 40 -89 14 -28 13 -30 -23 -71 -84 -96 -156
-201 -203 -300 -28 -58 -55 -113 -60 -122 -5 -10 -9 -109 -9 -220 1 -180 2
-201 15 -184 19 25 22 21 30 -41 3 -29 11 -67 16 -85 6 -18 12 -44 15 -58 3
-14 14 -44 24 -67 l19 -43 840 0 841 0 0 510 0 510 -25 40 c-30 47 -38 57
-130 164 -38 45 -75 85 -82 89 -7 4 -13 15 -13 23 0 8 -12 17 -28 20 -15 3
-38 13 -50 23 l-23 17 34 74 c19 41 44 116 56 165 31 129 32 135 24 136 -5 1
-79 3 -166 5 -87 1 -164 7 -170 12 -8 7 -16 6 -24 -3z"/>
</g>
</svg>
